<svg width="196" height="36" viewBox="0 0 196 36" fill="none" xmlns="http://www.w3.org/2000/svg">
<path d="M18 36C27.9411 36 36 27.9411 36 18C36 8.05887 27.9411 0 18 0C8.05887 0 0 8.05887 0 18C0 27.9411 8.05887 36 18 36Z" fill="#FFCC4D"/>
<path d="M18 21C14.377 21 11.973 20.578 9 20C8.321 19.869 7 20 7 22C7 26 11.595 31 18 31C24.404 31 29 26 29 22C29 20 27.679 19.868 27 20C24.027 20.578 21.623 21 18 21Z" fill="#664500"/>
<path d="M9 22C9 22 12 23 18 23C24 23 27 22 27 22C27 22 25 26 18 26C11 26 9 22 9 22Z" fill="white"/>
<path d="M12 17C13.3807 17 14.5 15.433 14.5 13.5C14.5 11.567 13.3807 10 12 10C10.6193 10 9.5 11.567 9.5 13.5C9.5 15.433 10.6193 17 12 17Z" fill="#664500"/>
<path d="M24 17C25.3807 17 26.5 15.433 26.5 13.5C26.5 11.567 25.3807 10 24 10C22.6193 10 21.5 11.567 21.5 13.5C21.5 15.433 22.6193 17 24 17Z" fill="#664500"/>
<path d="M45.2642 24V9.45455H55.0653V11.9901H48.3395V15.456H54.5611V17.9915H48.3395V21.4645H55.0938V24H45.2642ZM57.4535 24V13.0909H60.337V15.0156H60.4648C60.6921 14.3764 61.0709 13.8722 61.6012 13.5028C62.1315 13.1335 62.766 12.9489 63.5046 12.9489C64.2527 12.9489 64.8896 13.1359 65.4151 13.5099C65.9407 13.8793 66.2911 14.3812 66.4663 15.0156H66.5799C66.8024 14.3906 67.2049 13.8911 67.7873 13.517C68.3744 13.1383 69.0681 12.9489 69.8683 12.9489C70.8862 12.9489 71.7125 13.2732 72.3469 13.9219C72.9862 14.5658 73.3058 15.4796 73.3058 16.6634V24H70.2873V17.2599C70.2873 16.6539 70.1263 16.1993 69.8043 15.8963C69.4824 15.5933 69.0799 15.4418 68.5969 15.4418C68.0477 15.4418 67.6192 15.617 67.3114 15.9673C67.0037 16.313 66.8498 16.7699 66.8498 17.3381V24H63.9165V17.196C63.9165 16.661 63.7627 16.2348 63.4549 15.9176C63.1519 15.6004 62.7518 15.4418 62.2546 15.4418C61.9184 15.4418 61.6154 15.527 61.3455 15.6974C61.0804 15.8632 60.8697 16.0975 60.7134 16.4006C60.5572 16.6989 60.479 17.0492 60.479 17.4517V24H57.4535ZM80.6246 24.2131C79.5214 24.2131 78.5674 23.9787 77.7624 23.5099C76.9622 23.0365 76.3443 22.3783 75.9087 21.5355C75.4731 20.688 75.2553 19.7055 75.2553 18.5881C75.2553 17.4612 75.4731 16.4763 75.9087 15.6335C76.3443 14.786 76.9622 14.1278 77.7624 13.6591C78.5674 13.1856 79.5214 12.9489 80.6246 12.9489C81.7279 12.9489 82.6796 13.1856 83.4798 13.6591C84.2847 14.1278 84.9049 14.786 85.3406 15.6335C85.7762 16.4763 85.994 17.4612 85.994 18.5881C85.994 19.7055 85.7762 20.688 85.3406 21.5355C84.9049 22.3783 84.2847 23.0365 83.4798 23.5099C82.6796 23.9787 81.7279 24.2131 80.6246 24.2131ZM80.6388 21.8693C81.1407 21.8693 81.5598 21.7273 81.896 21.4432C82.2321 21.1544 82.4854 20.7614 82.6559 20.2642C82.8311 19.767 82.9187 19.2012 82.9187 18.5668C82.9187 17.9323 82.8311 17.3665 82.6559 16.8693C82.4854 16.3722 82.2321 15.9792 81.896 15.6903C81.5598 15.4015 81.1407 15.2571 80.6388 15.2571C80.1322 15.2571 79.7061 15.4015 79.3604 15.6903C79.0195 15.9792 78.7615 16.3722 78.5863 16.8693C78.4158 17.3665 78.3306 17.9323 78.3306 18.5668C78.3306 19.2012 78.4158 19.767 78.5863 20.2642C78.7615 20.7614 79.0195 21.1544 79.3604 21.4432C79.7061 21.7273 80.1322 21.8693 80.6388 21.8693ZM87.9613 13.0909H90.9869V24.5398C90.9869 25.3826 90.8211 26.0644 90.4897 26.5852C90.1583 27.1061 89.6824 27.4872 89.0621 27.7287C88.4466 27.9702 87.7103 28.0909 86.8533 28.0909C86.7492 28.0909 86.6497 28.0885 86.555 28.0838C86.4556 28.0838 86.3514 28.0814 86.2425 28.0767V25.7116C86.323 25.7164 86.3941 25.7188 86.4556 25.7188C86.5124 25.7235 86.574 25.7259 86.6403 25.7259C87.128 25.7259 87.4689 25.6217 87.663 25.4134C87.8619 25.2098 87.9613 24.902 87.9613 24.4901V13.0909ZM89.467 11.6847C89.0219 11.6847 88.6384 11.5355 88.3164 11.2372C87.9944 10.9342 87.8335 10.572 87.8335 10.1506C87.8335 9.7339 87.9944 9.37642 88.3164 9.07812C88.6384 8.77509 89.0219 8.62358 89.467 8.62358C89.9215 8.62358 90.3074 8.77509 90.6246 9.07812C90.9466 9.37642 91.1076 9.7339 91.1076 10.1506C91.1076 10.572 90.9466 10.9342 90.6246 11.2372C90.3074 11.5355 89.9215 11.6847 89.467 11.6847ZM93.4105 24V13.0909H96.4361V24H93.4105ZM94.9304 11.6847C94.4806 11.6847 94.0947 11.5355 93.7727 11.2372C93.4555 10.9342 93.2969 10.572 93.2969 10.1506C93.2969 9.7339 93.4555 9.37642 93.7727 9.07812C94.0947 8.77509 94.4806 8.62358 94.9304 8.62358C95.3802 8.62358 95.7637 8.77509 96.081 9.07812C96.4029 9.37642 96.5639 9.7339 96.5639 10.1506C96.5639 10.572 96.4029 10.9342 96.081 11.2372C95.7637 11.5355 95.3802 11.6847 94.9304 11.6847ZM103.545 24V9.45455H106.621V15.8679H106.812L112.047 9.45455H115.733L110.335 15.9673L115.797 24H112.118L108.134 18.0199L106.621 19.8665V24H103.545ZM121.449 24.2131C120.326 24.2131 119.36 23.9858 118.551 23.5312C117.746 23.072 117.126 22.4233 116.69 21.5852C116.254 20.7424 116.037 19.7457 116.037 18.5952C116.037 17.473 116.254 16.4882 116.69 15.6406C117.126 14.7931 117.739 14.1326 118.529 13.6591C119.325 13.1856 120.258 12.9489 121.328 12.9489C122.047 12.9489 122.717 13.0649 123.338 13.2969C123.963 13.5241 124.507 13.8674 124.971 14.3267C125.44 14.786 125.805 15.3636 126.065 16.0597C126.325 16.7509 126.456 17.5606 126.456 18.4886V19.3196H117.244V17.4446H123.608C123.608 17.009 123.513 16.6231 123.324 16.2869C123.134 15.9508 122.871 15.688 122.535 15.4986C122.204 15.3045 121.818 15.2074 121.377 15.2074C120.918 15.2074 120.511 15.3139 120.156 15.527C119.806 15.7353 119.531 16.017 119.332 16.3722C119.133 16.7225 119.031 17.1132 119.027 17.544V19.3267C119.027 19.8665 119.126 20.3329 119.325 20.7259C119.529 21.1188 119.815 21.4219 120.184 21.6349C120.554 21.848 120.992 21.9545 121.498 21.9545C121.834 21.9545 122.142 21.9072 122.422 21.8125C122.701 21.7178 122.94 21.5758 123.139 21.3864C123.338 21.197 123.489 20.965 123.593 20.6903L126.392 20.875C126.25 21.5473 125.958 22.1345 125.518 22.6364C125.083 23.1335 124.519 23.5218 123.828 23.8011C123.141 24.0758 122.348 24.2131 121.449 24.2131ZM130.005 28.0909C129.621 28.0909 129.262 28.0601 128.925 27.9986C128.594 27.9418 128.319 27.8684 128.102 27.7784L128.783 25.5199C129.138 25.6288 129.458 25.688 129.742 25.6974C130.031 25.7069 130.28 25.6406 130.488 25.4986C130.701 25.3565 130.874 25.1151 131.006 24.7741L131.184 24.3125L127.271 13.0909H130.452L132.711 21.1023H132.825L135.104 13.0909H138.308L134.067 25.179C133.864 25.7661 133.587 26.2775 133.237 26.7131C132.891 27.1534 132.453 27.492 131.923 27.7287C131.392 27.9702 130.753 28.0909 130.005 28.0909ZM139.913 24V9.45455H142.938V14.9233H143.031C143.163 14.6297 143.355 14.3314 143.606 14.0284C143.862 13.7206 144.193 13.465 144.6 13.2614C145.012 13.053 145.523 12.9489 146.134 12.9489C146.93 12.9489 147.664 13.1572 148.336 13.5739C149.008 13.9858 149.546 14.6084 149.948 15.4418C150.351 16.2704 150.552 17.3097 150.552 18.5597C150.552 19.7765 150.355 20.804 149.962 21.642C149.574 22.4754 149.044 23.1075 148.371 23.5384C147.704 23.9645 146.956 24.1776 146.127 24.1776C145.54 24.1776 145.04 24.0805 144.629 23.8864C144.221 23.6922 143.888 23.4484 143.627 23.1548C143.367 22.8565 143.168 22.5559 143.031 22.2528H142.896V24H139.913ZM142.874 18.5455C142.874 19.1941 142.964 19.7599 143.144 20.2429C143.324 20.7259 143.585 21.1023 143.925 21.3722C144.266 21.6373 144.681 21.7699 145.168 21.7699C145.661 21.7699 146.077 21.6349 146.418 21.3651C146.759 21.0904 147.017 20.7116 147.192 20.2287C147.372 19.741 147.462 19.1799 147.462 18.5455C147.462 17.9157 147.375 17.3617 147.2 16.8835C147.024 16.4053 146.766 16.0312 146.425 15.7614C146.085 15.4915 145.665 15.3565 145.168 15.3565C144.676 15.3565 144.259 15.4867 143.918 15.7472C143.582 16.0076 143.324 16.3769 143.144 16.8551C142.964 17.3333 142.874 17.8968 142.874 18.5455ZM157.5 24.2131C156.396 24.2131 155.442 23.9787 154.637 23.5099C153.837 23.0365 153.219 22.3783 152.784 21.5355C152.348 20.688 152.13 19.7055 152.13 18.5881C152.13 17.4612 152.348 16.4763 152.784 15.6335C153.219 14.786 153.837 14.1278 154.637 13.6591C155.442 13.1856 156.396 12.9489 157.5 12.9489C158.603 12.9489 159.555 13.1856 160.355 13.6591C161.16 14.1278 161.78 14.786 162.216 15.6335C162.651 16.4763 162.869 17.4612 162.869 18.5881C162.869 19.7055 162.651 20.688 162.216 21.5355C161.78 22.3783 161.16 23.0365 160.355 23.5099C159.555 23.9787 158.603 24.2131 157.5 24.2131ZM157.514 21.8693C158.016 21.8693 158.435 21.7273 158.771 21.4432C159.107 21.1544 159.36 20.7614 159.531 20.2642C159.706 19.767 159.794 19.2012 159.794 18.5668C159.794 17.9323 159.706 17.3665 159.531 16.8693C159.36 16.3722 159.107 15.9792 158.771 15.6903C158.435 15.4015 158.016 15.2571 157.514 15.2571C157.007 15.2571 156.581 15.4015 156.235 15.6903C155.895 15.9792 155.636 16.3722 155.461 16.8693C155.291 17.3665 155.206 17.9323 155.206 18.5668C155.206 19.2012 155.291 19.767 155.461 20.2642C155.636 20.7614 155.895 21.1544 156.235 21.4432C156.581 21.7273 157.007 21.8693 157.514 21.8693ZM167.947 24.206C167.251 24.206 166.631 24.0852 166.086 23.8438C165.542 23.5975 165.111 23.2353 164.794 22.7571C164.481 22.2741 164.325 21.6728 164.325 20.9531C164.325 20.3471 164.436 19.8381 164.659 19.4261C164.881 19.0142 165.184 18.6828 165.568 18.4318C165.951 18.1809 166.387 17.9915 166.875 17.8636C167.367 17.7358 167.883 17.6458 168.423 17.5938C169.057 17.5275 169.569 17.4659 169.957 17.4091C170.345 17.3475 170.627 17.2576 170.802 17.1392C170.977 17.0208 171.065 16.8456 171.065 16.6136V16.571C171.065 16.1212 170.923 15.7732 170.639 15.527C170.359 15.2808 169.962 15.1577 169.446 15.1577C168.901 15.1577 168.468 15.2784 168.146 15.5199C167.824 15.7566 167.611 16.0549 167.507 16.4148L164.708 16.1875C164.85 15.5246 165.13 14.9517 165.547 14.4688C165.963 13.9811 166.501 13.607 167.159 13.3466C167.822 13.0814 168.589 12.9489 169.46 12.9489C170.066 12.9489 170.646 13.0199 171.2 13.1619C171.759 13.304 172.253 13.5241 172.684 13.8224C173.12 14.1207 173.463 14.5043 173.714 14.973C173.965 15.437 174.091 15.9934 174.091 16.642V24H171.221V22.4872H171.136C170.961 22.8281 170.726 23.1288 170.433 23.3892C170.139 23.6449 169.787 23.8461 169.375 23.9929C168.963 24.1349 168.487 24.206 167.947 24.206ZM168.814 22.1179C169.259 22.1179 169.652 22.0303 169.993 21.8551C170.333 21.6752 170.601 21.4337 170.795 21.1307C170.989 20.8277 171.086 20.4844 171.086 20.1009V18.9432C170.992 19.0047 170.861 19.0616 170.696 19.1136C170.535 19.161 170.352 19.206 170.149 19.2486C169.945 19.2865 169.742 19.322 169.538 19.3551C169.334 19.3835 169.15 19.4096 168.984 19.4332C168.629 19.4853 168.319 19.5682 168.054 19.6818C167.788 19.7955 167.583 19.9493 167.436 20.1435C167.289 20.3329 167.216 20.5696 167.216 20.8537C167.216 21.2656 167.365 21.5805 167.663 21.7983C167.966 22.0114 168.35 22.1179 168.814 22.1179ZM176.438 24V13.0909H179.371V14.9943H179.485C179.684 14.3172 180.017 13.8059 180.486 13.4602C180.955 13.1098 181.495 12.9347 182.105 12.9347C182.257 12.9347 182.42 12.9441 182.596 12.9631C182.771 12.982 182.925 13.008 183.057 13.0412V15.7259C182.915 15.6832 182.719 15.6454 182.468 15.6122C182.217 15.5791 181.987 15.5625 181.779 15.5625C181.334 15.5625 180.936 15.6596 180.586 15.8537C180.24 16.0431 179.965 16.3082 179.762 16.6491C179.563 16.9901 179.463 17.383 179.463 17.8281V24H176.438ZM188.134 24.1776C187.305 24.1776 186.554 23.9645 185.882 23.5384C185.214 23.1075 184.684 22.4754 184.291 21.642C183.903 20.804 183.709 19.7765 183.709 18.5597C183.709 17.3097 183.91 16.2704 184.312 15.4418C184.715 14.6084 185.25 13.9858 185.918 13.5739C186.59 13.1572 187.326 12.9489 188.126 12.9489C188.737 12.9489 189.246 13.053 189.653 13.2614C190.065 13.465 190.397 13.7206 190.648 14.0284C190.903 14.3314 191.098 14.6297 191.23 14.9233H191.322V9.45455H194.341V24H191.358V22.2528H191.23C191.088 22.5559 190.887 22.8565 190.626 23.1548C190.371 23.4484 190.037 23.6922 189.625 23.8864C189.218 24.0805 188.721 24.1776 188.134 24.1776ZM189.092 21.7699C189.58 21.7699 189.992 21.6373 190.328 21.3722C190.669 21.1023 190.929 20.7259 191.109 20.2429C191.294 19.7599 191.386 19.1941 191.386 18.5455C191.386 17.8968 191.296 17.3333 191.116 16.8551C190.937 16.3769 190.676 16.0076 190.335 15.7472C189.994 15.4867 189.58 15.3565 189.092 15.3565C188.595 15.3565 188.176 15.4915 187.835 15.7614C187.494 16.0312 187.236 16.4053 187.061 16.8835C186.886 17.3617 186.798 17.9157 186.798 18.5455C186.798 19.1799 186.886 19.741 187.061 20.2287C187.241 20.7116 187.499 21.0904 187.835 21.3651C188.176 21.6349 188.595 21.7699 189.092 21.7699Z" fill="black"/>
</svg>
